<svg width="56" height="38" viewBox="0 0 56 38" fill="none" xmlns="http://www.w3.org/2000/svg">
<path fill-rule="evenodd" clip-rule="evenodd" d="M20.6013 35.4982C21.2917 35.4982 21.8519 36.0584 21.8519 36.7488C21.8519 37.4391 21.2917 37.9994 20.6013 37.9994C19.911 37.9994 19.3507 37.4391 19.3507 36.7488C19.3507 36.0584 19.911 35.4982 20.6013 35.4982ZM50.6163 2.98191H52.4922C52.8374 2.98191 53.1176 3.26201 53.1176 3.60721V6.42491C53.1176 6.68751 52.9525 6.92141 52.7074 7.01141C50.4049 7.70171 48.7404 9.83781 48.7404 12.3616C48.7404 14.8803 50.4 17.0152 52.6836 17.7318C52.9225 17.8093 53.09 18.0394 53.09 18.2983C53.09 18.3183 53.09 18.3371 53.0913 18.3558C53.1176 18.9374 53.1176 19.6002 53.1176 20.1817C53.1176 20.4444 52.9525 20.6782 52.7074 20.7683C50.4049 21.4586 48.7404 23.5947 48.7404 26.1185C48.7404 28.6372 50.4 30.772 52.6836 31.4887C52.9225 31.5662 53.09 31.7963 53.09 32.0552V32.0965C53.1176 32.9381 53.1176 33.9861 53.1176 34.8728C53.1176 35.218 52.8374 35.4982 52.4922 35.4982H24.3532C23.6628 35.4982 23.1026 36.0584 23.1026 36.7488C23.1026 37.4391 23.6628 37.9994 24.3532 37.9994H52.4922C54.2194 37.9994 55.6188 36.6 55.6188 34.8728C55.6188 33.9649 55.6188 32.8906 55.5913 32.0252C55.5813 30.6957 54.7146 29.5152 53.4402 29.105C53.4377 29.105 53.4352 29.1037 53.4327 29.1024C52.1633 28.7047 51.2416 27.5179 51.2416 26.1185C51.2416 24.7265 52.1546 23.5434 53.4227 23.1657C53.4315 23.1632 53.4402 23.1607 53.449 23.157C54.7421 22.7418 55.6188 21.5399 55.6188 20.1817C55.6188 19.5727 55.6188 18.8798 55.5913 18.2683C55.5775 16.9351 54.7121 15.757 53.4402 15.3481C53.4377 15.3481 53.4352 15.3468 53.4327 15.3456C52.1633 14.9479 51.2416 13.761 51.2416 12.3616C51.2416 10.9696 52.1546 9.78661 53.4227 9.40891C53.4315 9.40641 53.4402 9.40381 53.449 9.40011C54.7421 8.98491 55.6188 7.78301 55.6188 6.42491V3.60721C55.6188 1.88011 54.2194 0.480713 52.4922 0.480713H50.6163C49.926 0.480713 49.3657 1.04091 49.3657 1.73131C49.3657 2.42161 49.926 2.98191 50.6163 2.98191ZM15.5988 35.4982V32.3616C15.5988 31.6712 15.0385 31.111 14.3482 31.111C13.6578 31.111 13.0976 31.6712 13.0976 32.3616V35.4982H3.71787C3.3727 35.4982 3.09256 35.218 3.09256 34.8728V32.0552C3.09256 31.7926 3.25764 31.5587 3.50277 31.4687C5.80517 30.7783 7.46975 28.6422 7.46975 26.1185C7.46975 23.5997 5.81017 21.4649 3.52653 20.7483C3.28766 20.6707 3.12008 20.4406 3.12008 20.1817C3.12008 20.1617 3.12007 20.143 3.11882 20.1242C3.09255 19.5427 3.09256 18.8799 3.09256 18.2983C3.09256 18.0357 3.25764 17.8018 3.50277 17.7118C5.80517 17.0214 7.46975 14.8854 7.46975 12.3616C7.46975 9.84281 5.81017 7.70801 3.52653 6.99141C3.28766 6.91391 3.12008 6.68371 3.12008 6.42491C3.12008 6.41111 3.12008 6.39741 3.12008 6.38361C3.09256 5.54191 3.09256 4.49391 3.09256 3.60721C3.09256 3.26201 3.3727 2.98191 3.71787 2.98191H13.0976V7.34911C13.0976 8.03941 13.6578 8.59971 14.3482 8.59971C15.0385 8.59971 15.5988 8.03941 15.5988 7.34911V2.98191H46.8644C47.5548 2.98191 48.1151 2.42161 48.1151 1.73131C48.1151 1.04091 47.5548 0.480713 46.8644 0.480713C46.8644 0.480713 10.5463 0.480713 3.71787 0.480713C1.99076 0.480713 0.591309 1.88011 0.591309 3.60721C0.591309 4.51521 0.591309 5.58951 0.618829 6.45491C0.628829 7.78431 1.49552 8.96491 2.7699 9.37511C2.7724 9.37511 2.7749 9.37641 2.7774 9.37761C4.04679 9.77531 4.9685 10.9621 4.9685 12.3616C4.9685 13.7535 4.05554 14.9366 2.7874 15.3143C2.77865 15.3168 2.7699 15.3193 2.76114 15.3231C1.468 15.7383 0.591309 16.9401 0.591309 18.2983C0.591309 18.9074 0.591309 19.6002 0.618829 20.2118C0.632579 21.5449 1.49802 22.723 2.7699 23.132C2.7724 23.132 2.7749 23.1332 2.7774 23.1345C4.04679 23.5322 4.9685 24.719 4.9685 26.1185C4.9685 27.5104 4.05554 28.6935 2.7874 29.0712C2.77865 29.0737 2.7699 29.0762 2.76114 29.08C1.468 29.4952 0.591309 30.697 0.591309 32.0552V34.8728C0.591309 36.6 1.99076 37.9994 3.71787 37.9994H16.8494C17.5398 37.9994 18.1001 37.4391 18.1001 36.7488C18.1001 36.0584 17.5398 35.4982 16.8494 35.4982H15.5988ZM13.0976 22.3566V27.3591C13.0976 28.0494 13.6578 28.6097 14.3482 28.6097C15.0385 28.6097 15.5988 28.0494 15.5988 27.3591V22.3566C15.5988 21.6662 15.0385 21.106 14.3482 21.106C13.6578 21.106 13.0976 21.6662 13.0976 22.3566ZM13.0976 12.3516V17.3541C13.0976 18.0444 13.6578 18.6047 14.3482 18.6047C15.0385 18.6047 15.5988 18.0444 15.5988 17.3541V12.3516C15.5988 11.6612 15.0385 11.101 14.3482 11.101C13.6578 11.101 13.0976 11.6612 13.0976 12.3516Z" fill="#FF1B1C"/>
</svg>
